<svg width="25" height="24" viewBox="0 0 25 24" fill="none" xmlns="http://www.w3.org/2000/svg">
<path d="M15.5 22.75H9.5C4.07 22.75 1.75 20.43 1.75 15V9C1.75 3.57 4.07 1.25 9.5 1.25H15.5C20.93 1.25 23.25 3.57 23.25 9V15C23.25 20.43 20.93 22.75 15.5 22.75ZM9.5 2.75C4.89 2.75 3.25 4.39 3.25 9V15C3.25 19.61 4.89 21.25 9.5 21.25H15.5C20.11 21.25 21.75 19.61 21.75 15V9C21.75 4.39 20.11 2.75 15.5 2.75H9.5Z" fill="white"/>
<path d="M12.5006 13.0797C12.3706 13.0797 12.2406 13.0497 12.1206 12.9797L6.82061 9.9197C6.46061 9.7097 6.34059 9.2497 6.55059 8.8997C6.76059 8.5397 7.22061 8.4197 7.57061 8.6297L12.4906 11.4797L17.3806 8.6497C17.7406 8.4397 18.2006 8.5697 18.4006 8.9197C18.6006 9.2697 18.4806 9.7397 18.1306 9.9397L12.8706 12.9797C12.7606 13.0397 12.6306 13.0797 12.5006 13.0797Z" fill="white"/>
<path d="M12.5 18.5201C12.09 18.5201 11.75 18.1801 11.75 17.7701V12.3301C11.75 11.9201 12.09 11.5801 12.5 11.5801C12.91 11.5801 13.25 11.9201 13.25 12.3301V17.7701C13.25 18.1801 12.91 18.5201 12.5 18.5201Z" fill="white"/>
<path d="M12.5002 18.7498C11.9202 18.7498 11.3503 18.6198 10.8903 18.3698L7.69025 16.5898C6.73025 16.0598 5.99023 14.7898 5.99023 13.6898V10.2998C5.99023 9.20981 6.74025 7.9398 7.69025 7.3998L10.8903 5.6198C11.8103 5.1098 13.1902 5.1098 14.1102 5.6198L17.3102 7.3998C18.2702 7.9298 19.0103 9.19981 19.0103 10.2998V13.6898C19.0103 14.7798 18.2602 16.0498 17.3102 16.5898L14.1102 18.3698C13.6502 18.6298 13.0802 18.7498 12.5002 18.7498ZM12.5002 6.7498C12.1702 6.7498 11.8502 6.8098 11.6202 6.9398L8.42026 8.7198C7.93026 8.9898 7.49023 9.7498 7.49023 10.2998V13.6898C7.49023 14.2498 7.93026 14.9998 8.42026 15.2698L11.6202 17.0498C12.0802 17.3098 12.9202 17.3098 13.3802 17.0498L16.5802 15.2698C17.0702 14.9998 17.5103 14.2398 17.5103 13.6898V10.2998C17.5103 9.73981 17.0702 8.9898 16.5802 8.7198L13.3802 6.9398C13.1502 6.8098 12.8302 6.7498 12.5002 6.7498Z" fill="white"/>
</svg>
