<svg width="25" height="24" viewBox="0 0 25 24" fill="none" xmlns="http://www.w3.org/2000/svg">
<path d="M15.2506 22.7498H9.25063C7.93063 22.7498 6.83063 22.6198 5.90063 22.3398C5.56063 22.2398 5.34063 21.9098 5.36063 21.5598C5.61063 18.5698 8.64063 16.2197 12.2506 16.2197C15.8606 16.2197 18.8806 18.5598 19.1406 21.5598C19.1706 21.9198 18.9506 22.2398 18.6006 22.3398C17.6706 22.6198 16.5706 22.7498 15.2506 22.7498ZM6.97063 21.0598C7.63063 21.1898 8.38063 21.2498 9.25063 21.2498H15.2506C16.1206 21.2498 16.8706 21.1898 17.5306 21.0598C17.0006 19.1398 14.8106 17.7197 12.2506 17.7197C9.69063 17.7197 7.50063 19.1398 6.97063 21.0598Z" fill="black"/>
<path d="M15.25 2H9.25C4.25 2 2.25 4 2.25 9V15C2.25 18.78 3.39 20.85 6.11 21.62C6.33 19.02 9 16.97 12.25 16.97C15.5 16.97 18.17 19.02 18.39 21.62C21.11 20.85 22.25 18.78 22.25 15V9C22.25 4 20.25 2 15.25 2ZM12.25 14.17C10.27 14.17 8.67 12.56 8.67 10.58C8.67 8.60002 10.27 7 12.25 7C14.23 7 15.83 8.60002 15.83 10.58C15.83 12.56 14.23 14.17 12.25 14.17Z" stroke="black" stroke-width="1.5" stroke-linecap="round" stroke-linejoin="round"/>
<path d="M12.2499 14.92C9.85992 14.92 7.91992 12.97 7.91992 10.58C7.91992 8.19002 9.85992 6.25 12.2499 6.25C14.6399 6.25 16.5799 8.19002 16.5799 10.58C16.5799 12.97 14.6399 14.92 12.2499 14.92ZM12.2499 7.75C10.6899 7.75 9.41992 9.02002 9.41992 10.58C9.41992 12.15 10.6899 13.42 12.2499 13.42C13.8099 13.42 15.0799 12.15 15.0799 10.58C15.0799 9.02002 13.8099 7.75 12.2499 7.75Z" fill="black"/>
</svg>
